<svg width="33" height="34" viewBox="0 0 33 34" fill="none" xmlns="http://www.w3.org/2000/svg">
<path d="M21.45 21.51C20.8251 21.491 20.216 21.7078 19.7436 22.1172C19.2711 22.5266 18.97 23.0988 18.9 23.72C18.8969 23.732 18.8966 23.7446 18.8992 23.7568C18.9018 23.7689 18.9072 23.7803 18.915 23.79C18.9228 23.7997 18.9327 23.8075 18.944 23.8127C18.9552 23.8179 18.9676 23.8204 18.98 23.82H23.93C23.9414 23.8201 23.9527 23.8178 23.9631 23.8131C23.9735 23.8085 23.9829 23.8017 23.9904 23.7932C23.998 23.7846 24.0037 23.7746 24.0071 23.7637C24.0104 23.7528 24.0114 23.7413 24.01 23.73C23.9614 23.0975 23.6653 22.5097 23.186 22.0941C22.7068 21.6785 22.083 21.4687 21.45 21.51Z" fill="#01A71C"/>
<path d="M32.06 4.91L21.56 16.7C21.53 16.7324 21.4937 16.7583 21.4533 16.776C21.4128 16.7937 21.3691 16.8028 21.325 16.8028C21.2809 16.8028 21.2372 16.7937 21.1967 16.776C21.1563 16.7583 21.12 16.7324 21.09 16.7L15.73 11.17C15.6846 11.1132 15.6598 11.0427 15.6598 10.97C15.6598 10.8973 15.6846 10.8268 15.73 10.77L17.5 8.5C17.5296 8.45871 17.5687 8.42507 17.6139 8.40186C17.6591 8.37865 17.7092 8.36655 17.76 8.36655C17.8108 8.36655 17.8609 8.37865 17.9061 8.40186C17.9513 8.42507 17.9904 8.45871 18.02 8.5L21.02 11.82C21.05 11.8557 21.0875 11.8845 21.1299 11.9042C21.1722 11.9239 21.2183 11.9341 21.265 11.9341C21.3117 11.9341 21.3578 11.9239 21.4001 11.9042C21.4425 11.8845 21.48 11.8557 21.51 11.82L29.87 0.36C29.8933 0.326133 29.907 0.286655 29.9099 0.245669C29.9127 0.204684 29.9045 0.163687 29.8861 0.12694C29.8677 0.0901942 29.8399 0.05904 29.8054 0.0367164C29.7709 0.0143928 29.731 0.00171465 29.69 0L0.25 0C0.183696 0 0.120107 0.0263392 0.0732233 0.0732233C0.0263392 0.120107 0 0.183696 0 0.25L0 33.75C0 33.8163 0.0263392 33.8799 0.0732233 33.9268C0.120107 33.9737 0.183696 34 0.25 34H32.25C32.3163 34 32.3799 33.9737 32.4268 33.9268C32.4737 33.8799 32.5 33.8163 32.5 33.75V5.06C32.5199 5.00165 32.5158 4.93779 32.4886 4.88247C32.4614 4.82715 32.4133 4.78489 32.355 4.765C32.2967 4.74511 32.2328 4.74921 32.1775 4.7764C32.1221 4.8036 32.0799 4.85165 32.06 4.91ZM9.06 30.27C6.95928 30.3759 4.90008 29.6584 3.32 28.27C3.27008 28.2134 3.24254 28.1405 3.24254 28.065C3.24254 27.9895 3.27008 27.9166 3.32 27.86L4.57 26.11C4.59064 26.0742 4.61824 26.0428 4.65119 26.0178C4.68413 25.9928 4.72174 25.9746 4.76182 25.9644C4.80189 25.9541 4.8436 25.952 4.88451 25.9581C4.92542 25.9642 4.96468 25.9785 5 26C6.1419 27.0587 7.64287 27.6448 9.2 27.64C10.84 27.64 11.64 26.88 11.64 26.08C11.64 23.6 3.56 25.3 3.56 20.02C3.56 17.69 5.56 15.75 8.88 15.75C10.7853 15.6823 12.6505 16.3076 14.13 17.51C14.1856 17.5678 14.2167 17.6448 14.2167 17.725C14.2167 17.8052 14.1856 17.8822 14.13 17.94L12.9 19.65C12.8746 19.684 12.8425 19.7124 12.8057 19.7335C12.7688 19.7546 12.728 19.7679 12.6858 19.7726C12.6437 19.7773 12.601 19.7733 12.5604 19.7608C12.5198 19.7483 12.4822 19.7276 12.45 19.7C11.3591 18.8329 10.0034 18.3669 8.61 18.38C7.33 18.38 6.61 18.95 6.61 19.79C6.61 22.02 14.67 20.53 14.67 25.79C14.67 28.33 12.84 30.27 9.05 30.27H9.06ZM26.68 25.4C26.6814 25.4371 26.6751 25.4742 26.6615 25.5088C26.648 25.5434 26.6274 25.5748 26.6011 25.6011C26.5748 25.6274 26.5434 25.648 26.5088 25.6615C26.4742 25.6751 26.4371 25.6814 26.4 25.68H19C18.9882 25.6812 18.9767 25.6848 18.9662 25.6905C18.9558 25.6963 18.9465 25.704 18.9391 25.7133C18.9317 25.7226 18.9261 25.7333 18.9229 25.7447C18.9196 25.7562 18.9186 25.7682 18.92 25.78C19.04 26.4715 19.4144 27.0931 19.9696 27.5224C20.5248 27.9517 21.2206 28.1578 21.92 28.1C22.8378 28.0806 23.7291 27.7881 24.48 27.26C24.5093 27.2354 24.5435 27.2174 24.5803 27.207C24.6171 27.1966 24.6557 27.1942 24.6935 27.1999C24.7313 27.2056 24.7675 27.2192 24.7997 27.2399C24.8318 27.2606 24.8592 27.2879 24.88 27.32L25.78 28.63C25.8175 28.6882 25.8321 28.7582 25.821 28.8265C25.81 28.8948 25.774 28.9567 25.72 29C24.5319 29.8671 23.0904 30.3171 21.62 30.28C20.8855 30.321 20.1505 30.208 19.4621 29.9483C18.7738 29.6886 18.1473 29.288 17.6229 28.772C17.0985 28.2561 16.6877 27.6362 16.4168 26.9522C16.1459 26.2682 16.021 25.5351 16.05 24.8C16.0296 24.0825 16.1549 23.3684 16.4183 22.7007C16.6817 22.033 17.0777 21.4256 17.5824 20.9153C18.0872 20.4049 18.6901 20.0022 19.3549 19.7315C20.0196 19.4607 20.7323 19.3275 21.45 19.34C24.56 19.34 26.67 21.67 26.67 25.08L26.68 25.4Z" fill="#01A71C"/>
</svg>
