<svg width="1521" height="2104" viewBox="0 0 1521 2104" fill="none" xmlns="http://www.w3.org/2000/svg">
<path d="M1498.24 1013.86C1498.24 1430.26 1168.09 1768.15 760.6 1768.15C353.112 1768.15 22.9617 1430.26 22.9617 1013.86C22.9617 597.441 353.118 259.552 760.6 259.552C1168.09 259.552 1498.25 597.441 1498.25 1013.86" fill="#D33833"/>
<path d="M53.2974 1200.64C53.2974 1200.64 -0.23983 414.228 724.91 391.614L674.347 307.142L281.133 439.204L168.705 568.293L70.5516 756.272L14.6283 975.187L31.289 1121.53" fill="#EF3D3A"/>
<path d="M255.552 499.288C126.469 631.944 46.1571 814.576 46.1571 1016.83C46.1571 1219.08 126.469 1401.71 255.552 1534.37C385.234 1667.02 563.106 1748.52 760.6 1748.52C958.1 1748.52 1135.97 1667.02 1265.65 1534.37C1394.74 1401.71 1475.04 1219.08 1475.04 1016.83C1475.04 814.57 1394.74 631.944 1265.65 499.288C1135.97 367.225 958.1 285.139 760.6 285.139C563.699 285.139 385.24 366.632 255.552 499.288ZM222.836 1565.89C85.4257 1425.5 0.35376 1230.98 0.35376 1016.83C0.35376 802.675 85.4257 608.149 222.836 467.166C360.252 326.776 550.612 239.33 760.606 239.33C970.594 239.33 1160.95 326.776 1298.37 467.166C1435.78 607.555 1520.85 802.076 1520.85 1016.83C1520.85 1230.98 1435.78 1425.5 1298.37 1565.89C1160.95 1706.88 970.594 1793.73 760.6 1793.73C550.612 1793.73 360.252 1706.88 222.836 1565.89Z" fill="#231F20"/>
<path d="M1071.13 1018.02L958.693 1034.67L807.002 1051.93L708.849 1054.31L613.076 1051.33L539.904 1028.73L475.06 958.526L424.496 815.163L413.195 784.228L345.977 761.626L306.709 696.788L278.753 603.982L309.688 522.489L382.86 496.908L441.751 524.869L469.706 586.74L503.615 581.38L514.916 567.106L503.615 502.261L500.642 420.763L517.296 308.335L516.703 244.09L567.86 161.998L657.686 97.1535L814.736 29.9353L989.035 55.5108L1140.73 164.971L1210.92 277.399L1256.13 358.898L1267.43 561.152L1233.53 735.451L1171.65 890.121L1113.36 972.807" fill="#F0D6B7"/>
<path d="M975.947 1504.03L574.406 1520.68V1587.9L608.315 1824.07L591.655 1843.7L310.875 1747.93L291.247 1714.02L263.285 1396.36L197.254 1206L182.98 1160.79L407.842 1006.12L478.04 978.161L539.904 1054.3L593.441 1101.9L655.312 1121.52L683.267 1129.86L717.176 1276.19L742.758 1307.13L807.596 1284.52L762.386 1371.96L1006.28 1487.37L975.947 1504.02" fill="#335061"/>
<path d="M309.688 523.676L382.86 498.101L441.751 526.056L469.706 587.927L503.615 582.573L511.948 548.664L495.288 483.82L511.942 329.156L497.668 244.683L548.231 185.793L657.686 98.9401L626.751 56.7039L472.086 132.843L407.248 183.412L370.959 261.932L315.042 338.077L298.387 427.903L309.688 523.676Z" fill="#6D6B6D"/>
<path d="M425.096 259.552C425.096 259.552 467.326 155.451 635.677 104.887C804.023 54.3238 644.011 68.5984 644.011 68.5984L461.373 138.796L391.187 208.988L360.252 264.905L425.096 259.552ZM340.624 504.048C340.624 504.048 281.727 307.142 506.589 279.186L498.261 245.277L343.597 281.566L298.387 427.909L309.688 523.676L340.624 504.048Z" fill="#DCD9D8"/>
<path d="M430.45 765.199L467.326 729.504C467.326 729.504 483.987 731.29 486.96 750.918C489.934 770.553 498.261 947.825 619.023 1043C630.324 1051.93 529.197 1028.72 529.197 1028.72L439.365 888.335M947.392 711.656C947.392 711.656 953.933 626.59 977.134 633.137C1000.34 639.677 1000.34 662.873 1000.34 662.873C1000.34 662.873 944.418 698.568 947.392 711.656ZM1180.58 399.947C1180.58 399.947 1134.18 409.462 1130.02 450.511C1125.85 491.554 1180.58 458.838 1188.91 455.865M840.911 402.921C840.911 402.921 779.041 411.248 779.041 450.511C779.041 489.767 849.239 486.794 868.867 470.139M458.999 585.547C458.999 585.547 352.524 520.703 341.223 582.573C329.922 644.438 304.934 689.048 357.878 753.892L321.589 742.591L287.686 655.739L276.379 571.266L341.223 504.048L414.389 509.402L456.625 543.311L459.005 585.547M509.568 408.275C509.568 408.275 557.152 160.805 798.675 113.215C997.356 73.952 1102.06 121.548 1141.32 166.752C1141.32 166.752 964.047 -43.8298 795.695 20.4148C627.35 85.2589 503.615 203.041 506.589 278.592C511.349 408.269 509.562 408.269 509.562 408.269M1160.95 194.713C1160.95 194.713 1079.45 191.74 1076.47 264.905C1076.47 264.905 1076.47 276.212 1081.83 287.513C1081.83 287.513 1146.67 214.342 1185.94 253.604" fill="#F7E4CD"/>
<path d="M804.622 295.247C804.622 295.247 790.348 183.413 695.168 248.251C633.297 290.487 639.245 349.378 649.958 360.685C661.259 371.986 658.285 394.588 666.613 379.126C674.94 363.658 672.56 313.095 703.495 298.814C733.831 284.54 784.994 269.078 804.622 295.247Z" fill="#F7E4CD"/>
<path d="M540.504 1054.31L276.367 1172.08C276.367 1172.08 385.827 1607.53 329.904 1742.57L290.647 1728.29L287.674 1562.32L214.502 1248.23L183.567 1161.37L458.993 975.775L540.492 1054.3M567.266 1295.22L604.742 1341.03V1509.38H560.132C560.132 1509.38 554.778 1391.6 554.778 1377.32C554.778 1363.04 560.132 1312.48 560.132 1312.48M568.459 1534.96L441.751 1540.31L478.04 1565.89L567.86 1580.18" fill="#49728B"/>
<path d="M1000.94 1507L1105.03 1504.03L1130.61 1762.2L1024.13 1776.48L1000.93 1507" fill="#335061"/>
<path d="M1028.89 1507L1185.94 1498.67C1185.94 1498.67 1250.78 1335.68 1250.78 1327.35C1250.78 1319.02 1306.7 1091.19 1306.7 1091.19L1179.99 959.126L1154.41 936.524L1087.19 1003.74V1264.89L1028.89 1507Z" fill="#335061"/>
<path d="M1099.08 1487.37L1000.93 1507L1015.21 1585.53C1051.49 1602.18 1113.36 1557.57 1113.36 1557.57M1102.06 995.415L1298.96 1141.75L1304.32 1074.53L1155.6 937.117L1102.06 995.415" fill="#49728B"/>
<path d="M666.019 2060.24L607.722 1824.07L578.573 1649.77L573.813 1520.68L837.338 1506.41H1000.93L986.061 1801.46L1011.64 2029.3L1008.66 2071.54L795.102 2088.2L666.019 2060.24Z" fill="white"/>
<path d="M964.64 1504.03C964.64 1504.03 950.366 1796.12 992.602 2004.32C992.602 2004.32 908.13 2057.85 784.988 2071.54L1021.16 2063.21L1049.11 2046.55L1015.21 1586.12L1006.28 1487.37" fill="#DCD9D8"/>
<path d="M1134.78 1740.19L1244.23 1709.26L1451.85 1697.96L1482.78 1602.18L1426.86 1436.21L1362.02 1427.88L1272.19 1455.85L1186.53 1498.08L1140.73 1489.75L1105.03 1504.03" fill="white"/>
<path d="M1132.99 1683.68C1132.99 1683.68 1206.16 1649.77 1217.46 1652.75L1186.53 1498.08L1222.82 1483.8C1222.82 1483.8 1248.4 1630.15 1248.4 1646.8C1248.4 1646.8 1405.44 1655.13 1419.72 1655.13C1419.72 1655.13 1453.63 1590.28 1445.3 1523.06L1476.24 1612.89L1479.21 1663.45L1434 1730.67L1383.44 1741.98L1298.96 1739.01L1271 1702.72L1172.85 1716.99L1141.91 1728.3" fill="#DCD9D8"/>
<path d="M1022.34 1484.4L960.474 1327.35L895.635 1234.55C895.635 1234.55 909.916 1195.29 929.544 1195.29H994.388L1056.26 1217.89L1050.9 1322L1022.34 1484.4Z" fill="white"/>
<path d="M1034.84 1430.86C1034.84 1430.86 956.313 1279.17 956.313 1256.56C956.313 1256.56 970.594 1222.65 990.222 1230.98C1009.86 1239.31 1052.09 1261.92 1052.09 1261.92V1208.38L956.313 1188.75L891.475 1197.08L1000.93 1456.44L1023.53 1459.41" fill="#DCD9D8"/>
<path d="M691.001 1060.25L613.076 1051.92L539.904 1029.32V1054.9L575.594 1094.16L688.028 1144.73" fill="white"/>
<path d="M565.486 1068.58C565.486 1068.58 652.332 1104.87 680.893 1096.54L683.861 1130.45L605.342 1113.79L557.752 1079.88L565.486 1068.58Z" fill="#DCD9D8"/>
<path d="M1134.78 1204.81C1087.19 1203.62 1043.76 1197.67 1006.28 1186.96C1008.66 1171.49 1003.9 1156.63 1008.07 1145.32C1018.78 1137.59 1036.03 1137.59 1052.09 1135.8C1038.41 1129.26 1018.78 1126.28 1003.31 1130.45C1002.71 1119.74 997.956 1113.2 994.976 1104.87C1021.75 1095.35 1084.81 1032.89 1120.5 1053.11C1137.75 1063.23 1144.89 1119.14 1146.08 1147.11C1147.27 1169.71 1143.7 1192.32 1134.78 1204.81Z" fill="#D33833"/>
<path d="M1134.78 1204.81C1087.19 1203.62 1043.76 1197.67 1006.28 1186.96C1008.66 1171.49 1003.9 1156.63 1008.07 1145.32C1018.78 1137.59 1036.03 1137.59 1052.09 1135.8C1038.41 1129.26 1018.78 1126.28 1003.31 1130.45C1002.71 1119.74 997.956 1113.2 994.976 1104.87C1021.75 1095.35 1084.81 1032.89 1120.5 1053.11C1137.75 1063.23 1144.89 1119.14 1146.08 1147.11C1147.27 1169.71 1143.7 1192.32 1134.78 1204.81Z" fill="black" stroke="#D33833" stroke-width="11.9904"/>
<path d="M906.942 1126.88C906.942 1130.45 906.942 1134.01 906.343 1137.59C891.475 1147.11 867.674 1147.11 851.019 1155.43C874.82 1156.62 893.855 1162.57 910.51 1170.3C909.91 1179.23 909.91 1188.75 909.323 1197.67C881.954 1216.11 856.972 1244.07 824.85 1261.91C809.383 1270.25 756.439 1291.66 740.378 1287.5C731.451 1285.12 730.264 1273.81 726.697 1263.11C718.963 1240.5 701.115 1203.62 699.329 1169.11C697.542 1125.69 692.788 1052.52 739.778 1061.44C777.848 1068.58 821.871 1085.83 851.019 1101.9C869.46 1112.6 879.574 1124.5 906.942 1126.88Z" fill="#D33833"/>
<path d="M906.942 1126.88C906.942 1130.45 906.942 1134.01 906.343 1137.59C891.475 1147.11 867.674 1147.11 851.019 1155.43C874.82 1156.62 893.855 1162.57 910.51 1170.3C909.91 1179.23 909.91 1188.75 909.323 1197.67C881.954 1216.11 856.972 1244.07 824.85 1261.91C809.383 1270.25 756.439 1291.66 740.378 1287.5C731.451 1285.12 730.264 1273.81 726.697 1263.11C718.963 1240.5 701.115 1203.62 699.329 1169.11C697.542 1125.69 692.788 1052.52 739.778 1061.44C777.848 1068.58 821.871 1085.83 851.019 1101.9C869.46 1112.6 879.574 1124.5 906.942 1126.88Z" fill="black" stroke="#D33833" stroke-width="11.9904"/>
<path d="M933.711 1178.63C929.544 1154.83 924.784 1148.3 926.571 1127.47C990.222 1085.23 1001.53 1200.05 933.711 1178.63Z" fill="#D33833"/>
<path d="M933.711 1178.63C929.544 1154.83 924.784 1148.3 926.571 1127.47C990.222 1085.23 1001.53 1200.05 933.711 1178.63Z" fill="black" stroke="#D33833" stroke-width="11.9904"/>
<path d="M1025.32 1197.67C1025.32 1197.67 1005.69 1169.71 1019.96 1161.38C1034.24 1153.05 1047.93 1161.38 1056.25 1147.11C1064.59 1132.82 1056.25 1124.5 1059.23 1107.84C1062.2 1091.19 1075.88 1088.21 1090.16 1085.24C1104.44 1082.26 1143.7 1076.91 1149.05 1090.59L1132.4 1040.03L1098.49 1028.72L992.008 1090.59L986.655 1121.53V1183.39M730.264 1290.47C726.697 1246.45 723.13 1203.02 719.556 1159C713.609 1093.57 735.024 1104.86 792.128 1104.86C801.055 1104.86 845.665 1114.98 848.645 1121.53C864.113 1153.05 823.064 1145.91 866.487 1169.71C902.776 1189.34 967.62 1157.81 952.746 1113.2C944.412 1103.08 909.916 1110.22 897.422 1103.68L831.391 1069.77C803.435 1055.49 739.185 1034.08 709.442 1054.31C633.891 1105.46 714.203 1233.96 740.971 1287.5" fill="#EF3D3A"/>
<path d="M804.622 295.247C727.884 277.399 689.814 327.369 666.613 379.12C645.791 374.366 654.119 345.81 659.478 331.536C673.153 294.06 728.483 243.49 773.687 250.631C792.722 253.011 818.897 270.858 804.622 295.247ZM1177.61 382.093H1181.18C1198.43 417.789 1213.3 455.864 1235.31 487.987C1220.44 522.489 1124.66 552.231 1125.85 491.554C1146.67 482.633 1182.37 489.767 1200.81 477.873C1190.1 448.724 1175.23 423.73 1177.61 382.093ZM843.291 383.292C859.946 413.628 865.294 445.157 888.495 467.765C899.209 477.873 919.431 490.367 909.323 518.916C906.943 525.463 889.688 540.337 879.574 543.31C843.291 554.018 758.219 545.691 786.775 499.881C817.11 501.074 857.566 519.515 880.174 497.501C862.92 470.139 831.984 415.409 843.291 383.292ZM1163.93 689.048C1109.2 724.15 1047.92 762.819 957.506 753.892C938.471 737.237 930.737 699.755 949.772 675.373C959.287 692.027 953.339 722.963 980.707 727.717C1031.86 736.644 1091.35 696.188 1128.23 682.513C1150.83 643.844 1126.45 630.163 1105.63 605.175C1063.39 554.611 1007.48 491.554 1009.26 416.008C1026.51 403.514 1027.7 435.043 1030.08 440.397C1052.09 491.554 1107.42 557.585 1147.27 601.608C1157.38 612.315 1173.44 623.023 1175.23 630.163C1180.58 650.385 1161.55 675.361 1163.93 689.048ZM439.365 652.171C422.116 642.057 417.956 599.228 397.728 598.035C368.579 596.254 373.933 653.958 373.933 687.861C354.305 670.019 350.731 614.096 365.012 585.547C348.357 577.213 341.211 594.468 331.697 600.415C344.191 514.162 458.399 560.559 439.365 652.171ZM1198.43 725.337C1172.85 774.12 1136.56 827.657 1061.61 829.444C1059.82 813.976 1058.63 789.587 1061.61 780.067C1119.31 774.12 1155 744.971 1198.43 725.337ZM839.125 756.866C886.715 781.854 974.754 784.827 1040.19 783.041C1043.76 797.321 1043.76 815.163 1043.76 832.417C959.886 835.984 861.133 815.163 839.125 756.866ZM830.204 803.268C863.513 886.548 977.134 877.034 1072.91 874.653C1068.75 885.361 1059.82 898.448 1047.93 902.609C1016.99 915.103 932.518 924.623 889.688 902.015C862.92 887.741 845.072 855.019 830.204 835.984C823.657 827.063 787.968 803.862 830.204 803.268Z" fill="#231F20"/>
<path d="M1159.76 1261.91C1121.09 1328.54 1083.62 1396.95 1037.82 1455.25C1056.85 1398.74 1065.17 1303.56 1068.15 1230.98C1108.6 1211.94 1143.11 1235.14 1159.76 1261.91Z" fill="#81B0C4"/>
<path d="M1368.56 1501.06C1325.14 1509.98 1294.8 1552.21 1251.97 1549.24C1275.76 1516.52 1316.21 1502.24 1368.56 1501.06ZM1387.6 1568.87C1351.91 1572.44 1310.26 1578.39 1274.57 1575.42C1291.82 1549.24 1357.26 1558.75 1387.6 1568.87ZM1400.09 1627.77C1360.23 1628.36 1310.86 1627.77 1272.79 1624.79C1295.39 1600.4 1374.51 1615.86 1400.09 1627.77Z" fill="#231F20"/>
<path d="M1084.81 1788.38C1090.76 1838.35 1110.39 1888.92 1108.01 1943.64C1086 1950.77 1073.51 1957.32 1043.76 1957.32C1041.98 1910.92 1035.43 1839.54 1037.22 1794.92C1051.49 1796.11 1072.91 1784.81 1084.81 1788.38Z" fill="#DCD9D8"/>
<path d="M1020.56 1050.74C1000.34 1063.82 983.681 1079.88 964.047 1094.16C921.217 1096.54 898.016 1091.19 867.086 1066.8C867.68 1065.01 870.654 1065.61 870.654 1063.23C916.457 1083.45 974.754 1054.91 1020.56 1050.74Z" fill="#F0D6B7"/>
<path d="M781.421 1361.85C793.915 1307.72 843.291 1279.17 887.902 1249.43C933.705 1307.72 961.667 1382.68 992.602 1455.25C919.43 1433.24 845.072 1398.14 781.421 1361.85Z" fill="#81B0C4"/>
<path d="M1037.22 1795.52C1035.43 1840.13 1041.38 1910.92 1043.76 1957.91C1073.51 1957.91 1086 1951.37 1108.01 1944.23C1110.39 1889.5 1090.76 1838.94 1084.81 1788.97C1072.91 1784.81 1051.49 1796.11 1037.22 1795.52ZM577.974 1543.29C597.608 1722.35 625.564 1872.25 677.314 2031.09C792.128 2066.18 930.138 2069.16 1031.86 2037.63C1013.42 1948.4 1021.16 1839.54 1010.45 1743.76C1002.12 1671.78 1006.28 1599.8 994.982 1526.63C871.841 1501.06 698.142 1520.68 577.974 1543.29ZM1024.13 1527.82C1022.94 1604.56 1027.7 1680.7 1033.65 1757.44C1063.39 1753.28 1083.02 1750.31 1110.39 1743.76C1101.46 1670 1102.66 1586.12 1084.21 1520.68C1063.39 1521.28 1044.95 1520.69 1024.13 1527.82ZM1173.44 1515.33C1159.17 1512.36 1143.11 1515.33 1130.02 1515.33C1136.56 1577.79 1151.43 1646.8 1156.79 1712.83C1177.61 1713.42 1188.91 1703.31 1206.16 1700.34C1207.35 1642.63 1201.4 1562.92 1173.44 1515.33ZM1400.09 1722.35C1444.11 1711.64 1471.47 1658.1 1458.98 1602.78C1450.65 1565.89 1436.38 1495.7 1420.31 1471.9C1409.01 1454.65 1377.48 1431.45 1351.91 1447.51C1310.86 1473.69 1238.88 1481.42 1209.14 1512.95C1224 1562.92 1228.77 1630.74 1234.71 1693.79C1285.88 1696.77 1348.33 1679.52 1391.17 1697.96C1361.42 1707.48 1323.35 1707.48 1297.77 1721.75C1319.18 1731.87 1367.97 1730.08 1400.09 1722.35ZM992.008 1455.25C961.073 1382.67 933.118 1307.72 887.308 1249.43C842.692 1279.16 793.915 1307.72 780.827 1361.85C845.072 1398.14 919.436 1433.24 992.008 1455.25ZM1068.15 1230.98C1065.17 1303.56 1056.85 1398.74 1037.81 1455.25C1083.62 1396.36 1121.1 1328.54 1159.76 1261.91C1143.11 1235.14 1108.6 1211.94 1068.15 1230.98L1068.15 1230.98ZM981.895 1200.65C964.64 1198.86 949.772 1220.87 927.164 1211.35C921.811 1217.3 917.05 1223.25 911.697 1229.2C961.667 1289.87 984.868 1375.54 1023.54 1446.33C1044.36 1377.92 1041.98 1303.56 1046.74 1229.2C1018.18 1230.38 1002.12 1202.44 981.895 1200.65ZM926.571 1127.47C924.784 1148.29 929.544 1154.84 933.705 1178.63C1001.52 1200.05 990.222 1085.23 926.571 1127.47ZM851.019 1102.49C821.871 1086.42 777.854 1069.17 739.778 1062.04C692.788 1053.11 697.542 1126.28 699.329 1169.71C701.115 1204.21 718.963 1240.5 726.697 1263.7C730.264 1274.41 731.451 1285.71 740.378 1288.09C756.439 1291.66 809.976 1270.84 824.85 1262.51C856.973 1245.26 881.955 1217.3 909.323 1198.26C909.916 1189.34 909.916 1179.82 910.51 1170.9C893.855 1162.57 875.414 1157.22 851.019 1156.03C867.086 1147.7 891.475 1147.7 906.343 1138.18C906.343 1134.61 906.343 1131.04 906.943 1127.47C879.574 1124.5 869.46 1112.6 851.019 1102.49ZM571.433 1051.93C547.044 1076.91 639.838 1110.22 668.993 1112.01C668.993 1096.54 677.914 1081.67 676.127 1070.37C641.031 1064.42 595.228 1068.58 571.433 1051.93ZM871.253 1063.23C871.253 1065.61 868.273 1065.01 867.68 1066.8C899.209 1091.19 922.404 1096.54 964.64 1094.16C983.681 1080.48 1000.93 1063.83 1021.16 1050.73C974.754 1054.9 916.463 1083.45 871.253 1063.23ZM1146.08 1146.51C1144.89 1119.14 1137.75 1062.63 1120.5 1052.52C1084.81 1031.7 1021.75 1094.76 994.982 1104.28C997.956 1112.6 1002.72 1119.14 1003.31 1129.85C1019.38 1125.69 1038.41 1128.66 1052.09 1135.2C1036.03 1136.99 1018.78 1136.99 1008.07 1144.73C1004.5 1156.03 1009.26 1170.9 1006.28 1186.37C1043.76 1197.08 1087.19 1202.43 1134.78 1204.21C1143.7 1192.32 1147.27 1169.71 1146.08 1146.51ZM530.384 1075.72C522.65 1070.37 470.899 1003.14 463.759 1006.12C370.366 1043 282.92 1106.66 204.988 1167.33C279.347 1327.35 309.688 1523.06 315.042 1711.64C400.114 1751.49 475.06 1809.2 591.061 1815.15C577.38 1720.56 565.486 1635.49 557.752 1546.26C528.603 1533.77 486.961 1546.86 459.598 1542.69C459.598 1509.98 501.235 1528.42 504.802 1506.41C507.188 1489.75 481.601 1488.56 489.934 1462.39C511.349 1470.12 522.65 1487.37 545.258 1493.92C566.079 1448.71 545.258 1368.4 548.231 1330.32C548.831 1323.19 551.799 1291.06 567.86 1296.42C582.14 1301.18 567.266 1382.67 568.459 1418.36C569.646 1451.68 564.293 1483.21 577.974 1504.03C689.814 1488.56 803.435 1479.04 924.784 1475.47C898.016 1464.17 866.487 1453.47 831.984 1433.83C812.95 1423.12 754.059 1401.12 748.705 1383.27C739.778 1354.71 771.307 1339.85 776.661 1315.45C720.15 1346.39 709.442 1285.71 695.761 1243.47C683.861 1204.8 676.727 1175.66 673.753 1153.65C624.377 1128.66 572.026 1105.46 530.384 1075.72ZM1096.7 1013.85C1174.63 976.38 1188.91 1154.84 1157.97 1212.54C1162.73 1229.79 1178.8 1236.34 1185.34 1251.8C1141.91 1329.73 1093.74 1402.3 1049.11 1479.04C1081.83 1458.22 1129.42 1475.47 1168.09 1460.01C1182.37 1454.65 1192.48 1421.94 1203.19 1395.76C1232.93 1324.38 1263.86 1233.95 1277.55 1166.15C1280.52 1150.68 1289.44 1116.76 1287.06 1103.08C1283.5 1078.1 1250.18 1059.66 1232.93 1044.79C1201.4 1016.23 1181.77 991.848 1148.45 965.073C1135.97 984.707 1107.41 997.789 1096.7 1013.86V1013.85ZM352.518 323.203C315.636 364.252 323.369 440.397 327.536 495.121C394.754 452.891 483.393 498.694 482.794 570.079C514.916 569.48 494.694 530.223 488.747 504.641C469.706 421.956 520.869 332.723 491.121 257.177C433.423 261.932 386.427 285.127 352.518 323.203ZM617.83 85.8525C533.957 109.647 426.283 170.918 391.781 246.464C418.549 242.303 436.99 229.216 463.165 227.429C473.279 226.836 486.367 231.596 497.668 228.622C520.27 222.675 539.904 171.512 557.152 152.477C573.813 134.036 594.035 125.709 607.722 109.054C616.643 104.887 629.724 104.887 630.324 91.7998C626.757 87.6331 622.59 84.6655 617.83 85.8525ZM1055.06 108.454C967.62 59.0839 820.09 22.2015 727.29 68.5983C652.332 106.074 551.211 167.939 516.703 245.876C548.825 321.416 507.188 390.421 504.209 467.159C503.022 508.209 523.249 543.311 525.03 587.927C513.729 606.368 480.414 608.149 457.218 606.962C449.484 567.693 435.803 523.676 395.348 518.916C338.243 512.375 296.007 559.965 293.627 609.342C290.653 667.639 338.243 764.006 406.055 757.465C432.23 755.085 438.777 728.91 467.326 728.91C482.794 759.845 443.537 769.36 439.371 791.368C438.177 797.321 442.344 819.33 445.318 830.037C457.812 880.601 485.174 946.632 511.942 985.301C546.445 1034.67 613.669 1041.81 686.241 1046.57C699.329 1018.61 746.918 1020.99 777.848 1028.13C740.378 1013.26 705.875 977.567 677.32 946.038C644.598 909.749 611.289 871.086 609.502 823.496C671.966 909.749 723.124 985.301 836.151 1023.38C921.811 1051.93 1021.75 1010.28 1087.78 963.886C1115.14 944.845 1131.21 913.916 1150.84 886.548C1223.41 781.854 1257.32 633.131 1250.18 488.58C1247.21 429.096 1247.21 369.605 1226.98 329.749C1206.16 288.107 1135.37 250.037 1093.73 288.107C1086 247.064 1128.23 222.076 1177.6 236.95C1142.51 191.146 1105.63 137.01 1055.06 108.454ZM1218.06 1453.47C1286.47 1419.56 1413.77 1362.45 1456.01 1453.47C1472.07 1487.37 1490.51 1543.89 1498.24 1578.98C1509.54 1627.76 1485.75 1731.27 1435.19 1747.33C1390.57 1761.61 1338.82 1761.01 1285.28 1750.31C1278.73 1744.95 1272.19 1736.03 1266.84 1726.51C1228.77 1725.32 1192.48 1728.3 1162.73 1744.36C1165.71 1772.91 1146.67 1777.08 1128.23 1783.03C1115.14 1835.97 1155 1904.97 1145.49 1952.56C1138.94 1987.06 1096.7 1992.42 1065.77 1998.36C1064.58 2017.41 1066.96 2033.47 1069.34 2049.53C1062.21 2075.7 1030.67 2090.57 1000.34 2094.14C900.995 2106.04 750.492 2111.39 655.312 2076.89C628.537 2011.46 607.722 1932.34 585.707 1857.98C492.908 1868.09 417.362 1818.12 346.571 1784.81C322.182 1773.51 288.273 1766.96 278.753 1747.33C269.832 1728.3 273.399 1692.01 271.019 1658.1C265.665 1570.65 260.312 1486.18 237.71 1396.95C227.596 1356.5 209.155 1321.4 196.661 1282.74C184.766 1247.05 164.538 1202.43 159.185 1166.73C151.451 1113.8 201.421 1110.82 232.95 1087.61C282.326 1051.93 320.989 1032.29 374.526 1000.17C390.594 990.655 438.178 966.86 443.531 955.553C454.245 933.55 425.096 902.615 417.362 885.361C404.868 857.999 398.321 834.797 396.541 808.023C351.924 800.888 317.422 774.12 297.2 744.378C263.285 694.408 239.49 602.201 269.239 532.603C271.619 527.249 282.92 515.942 284.706 507.615C288.273 490.96 278.159 468.946 277.566 451.104C274.592 360.085 293.034 281.56 354.305 254.198C379.287 154.857 468.513 122.141 552.398 72.765C583.927 54.3237 618.429 42.4293 654.119 29.3357C782.014 -17.6547 978.921 -8.73381 1085.4 71.5719C1130.61 105.481 1202.59 177.459 1228.17 229.809C1296.58 367.225 1291.23 597.441 1243.64 765.199C1237.09 787.801 1228.17 820.517 1215.08 847.885C1206.16 866.92 1178.2 904.396 1181.18 921.05C1184.75 938.304 1245.43 984.108 1258.51 996.602C1281.71 1019.2 1326.33 1048.95 1329.89 1077.51C1334.06 1107.84 1316.81 1149.49 1307.89 1178.63C1279.33 1276.19 1250.78 1366.02 1218.06 1453.47Z" fill="#231F20"/>
<path d="M762.986 777.687C766.553 772.927 786.775 765.199 815.33 778.88C815.33 778.88 781.421 784.234 784.395 840.751L770.12 837.771C770.72 838.37 755.845 787.207 762.986 777.687Z" fill="#F7E4CD"/>
<path d="M1009.26 1260.73C1009.26 1269.05 1002.12 1276.19 993.789 1276.19C985.462 1276.19 978.321 1269.05 978.321 1260.73C978.321 1252.39 985.462 1245.26 993.789 1245.26C1002.72 1245.26 1009.26 1252.39 1009.26 1260.73ZM1024.72 1332.71C1024.72 1341.04 1017.59 1348.17 1009.26 1348.17C1000.93 1348.17 993.789 1341.04 993.789 1332.71C993.789 1324.37 1000.93 1317.24 1009.26 1317.24C1018.18 1317.24 1024.72 1323.78 1024.72 1332.71Z" fill="#1D1919"/>
</svg>
