<svg width="106" height="106" viewBox="0 0 106 106" fill="none" xmlns="http://www.w3.org/2000/svg">
<path fill-rule="evenodd" clip-rule="evenodd" d="M12.8276 0H92.9321C100.039 0 105.76 4.19554 105.76 9.40733V95.7823C105.76 100.994 100.038 105.19 92.9321 105.19H12.8276C5.72071 105.19 0 100.994 0 95.7823V9.40733C0 4.19583 5.72127 0 12.8276 0Z" fill="#BB4803"/>
<g filter="url(#filter0_f_18_7)">
<path fill-rule="evenodd" clip-rule="evenodd" d="M16.5229 4.94189H88.8172C95.2311 4.94189 100.394 8.72841 100.394 13.4318V91.3837C100.394 96.0871 95.2308 99.8735 88.8172 99.8735H16.5229C10.109 99.8735 4.9458 96.087 4.9458 91.3837V13.4318C4.9458 8.72835 10.1092 4.94189 16.5229 4.94189Z" fill="url(#paint0_radial_18_7)"/>
</g>
<g opacity="0.449" filter="url(#filter1_f_18_7)">
<path fill-rule="evenodd" clip-rule="evenodd" d="M10.2805 6.19844C10.2805 6.19844 91.717 5.39215 93.5287 5.99687C95.3428 6.60157 89.4973 13.4548 82.6438 14.0598C75.792 14.6643 24.1894 13.8578 24.1894 13.8578L10.281 6.19836L10.2805 6.19844Z" fill="white"/>
</g>
<path fill-rule="evenodd" clip-rule="evenodd" d="M54.472 40.5421C54.472 51.3265 45.2153 60.069 33.7965 60.069C22.3777 60.069 13.121 51.3265 13.121 40.5421C13.121 29.7576 22.3777 21.0151 33.7965 21.0151C45.2153 21.0151 54.472 29.7576 54.472 40.5421Z" fill="white"/>
<path fill-rule="evenodd" clip-rule="evenodd" d="M54.6244 66.0529C54.6244 78.0966 45.2492 87.86 33.6842 87.86C22.1192 87.86 12.744 78.0966 12.744 66.0529C12.744 54.0093 22.1192 44.2458 33.6842 44.2458C45.2492 44.2458 54.6244 54.0093 54.6244 66.0529Z" fill="white"/>
<path fill-rule="evenodd" clip-rule="evenodd" d="M93.9627 41.6823C93.9627 53.49 84.5785 63.0622 73.0022 63.0622C61.4259 63.0622 52.0417 53.49 52.0417 41.6823C52.0417 29.8746 61.4259 20.3025 73.0022 20.3025C84.5785 20.3025 93.9627 29.8746 93.9627 41.6823Z" fill="white"/>
<path fill-rule="evenodd" clip-rule="evenodd" d="M92.8057 66.9106C92.8057 78.9542 83.6856 88.7177 72.4356 88.7177C61.1855 88.7177 52.0654 78.9542 52.0654 66.9106C52.0654 54.867 61.1855 45.1035 72.4356 45.1035C83.6856 45.1035 92.8057 54.867 92.8057 66.9106Z" fill="white"/>
<path opacity="0.99" d="M32.2224 41.8967H75.1565V67.2945H32.2224V41.8967Z" fill="white"/>
<path d="M73.2946 34.301C71.6138 34.3291 70.0126 35.0225 68.8423 36.2293C67.6719 37.436 67.0279 39.0576 67.0513 40.7385C67.0513 45.6906 66.3389 46.7324 65.8166 47.1585C65.2944 47.5848 62.5071 48.5695 56.363 48.5695C49.978 48.5695 44.0259 47.8717 37.9321 50.2627C34.8852 51.4582 31.8485 53.8496 30.0662 57.106C28.2833 60.3623 27.6322 64.1118 27.6322 68.4469C27.621 69.2879 27.777 70.1227 28.091 70.9028C28.4051 71.683 28.871 72.393 29.4617 72.9917C30.0524 73.5903 30.7562 74.0657 31.5321 74.3901C32.308 74.7145 33.1406 74.8816 33.9817 74.8816C34.8227 74.8816 35.6553 74.7145 36.4312 74.3901C37.2072 74.0657 37.9109 73.5903 38.5016 72.9917C39.0923 72.393 39.5582 71.683 39.8723 70.9028C40.1864 70.1227 40.3423 69.2879 40.3311 68.4469C40.3311 65.4445 40.8349 63.8492 41.1953 63.191C41.5557 62.5327 41.6656 62.4527 42.571 62.0975C44.3818 61.387 49.6124 61.2685 56.3637 61.2685C63.4209 61.2685 69.1484 60.8312 73.8424 57.0003C78.5362 53.1693 79.7511 47.1217 79.7511 40.7389C79.7629 39.8887 79.6039 39.0448 79.2834 38.2573C78.963 37.4697 78.4876 36.7545 77.8855 36.1541C77.2835 35.5537 76.567 35.0804 75.7785 34.7621C74.99 34.4439 74.1457 34.2872 73.2955 34.3014L73.2946 34.301Z" fill="#FB7922"/>
<path d="M73.3115 53.6869C71.6307 53.715 70.0296 54.4084 68.8592 55.6152C67.6889 56.8219 67.0448 58.4435 67.0682 60.1244V67.5851C67.057 68.4261 67.2129 69.2609 67.527 70.0411C67.841 70.8212 68.3069 71.5313 68.8977 72.1299C69.4884 72.7285 70.1921 73.2039 70.968 73.5283C71.744 73.8527 72.5766 74.0198 73.4176 74.0198C74.2586 74.0198 75.0913 73.8527 75.8672 73.5283C76.6431 73.2039 77.3469 72.7285 77.9376 72.1299C78.5283 71.5313 78.9942 70.8212 79.3083 70.0411C79.6223 69.2609 79.7783 68.4261 79.7671 67.5851V60.1244C79.7789 59.2742 79.6199 58.4303 79.2994 57.6428C78.9789 56.8552 78.5036 56.14 77.9015 55.5396C77.2994 54.9392 76.5829 54.4659 75.7945 54.1476C75.006 53.8294 74.1617 53.6727 73.3115 53.6869Z" fill="#FB7922"/>
<path opacity="0.99" d="M42.7664 41.0502C42.7664 42.9676 42.7531 48.3405 42.7531 48.3405C42.7531 48.3405 37.3914 48.3573 35.1975 48.3573C31.0172 48.3573 27.6284 45.0859 27.6284 41.0506C27.6284 37.0151 31.0172 33.7434 35.1975 33.7434C39.3778 33.7434 42.7664 37.0144 42.7664 41.0502Z" fill="#FB7922"/>
<defs>
<filter id="filter0_f_18_7" x="3.04199" y="3.03809" width="99.2561" height="98.7393" filterUnits="userSpaceOnUse" color-interpolation-filters="sRGB">
<feFlood flood-opacity="0" result="BackgroundImageFix"/>
<feBlend mode="normal" in="SourceGraphic" in2="BackgroundImageFix" result="shape"/>
<feGaussianBlur stdDeviation="0.951904" result="effect1_foregroundBlur_18_7"/>
</filter>
<filter id="filter1_f_18_7" x="9.35951" y="4.85102" width="85.4244" height="10.3544" filterUnits="userSpaceOnUse" color-interpolation-filters="sRGB">
<feFlood flood-opacity="0" result="BackgroundImageFix"/>
<feBlend mode="normal" in="SourceGraphic" in2="BackgroundImageFix" result="shape"/>
<feGaussianBlur stdDeviation="0.460475" result="effect1_foregroundBlur_18_7"/>
</filter>
<radialGradient id="paint0_radial_18_7" cx="0" cy="0" r="1" gradientUnits="userSpaceOnUse" gradientTransform="translate(53.6895 54.5957) scale(124.3 123.535)">
<stop stop-color="#F5660F"/>
<stop offset="0.5" stop-color="#F66E18" stop-opacity="0.610687"/>
<stop offset="1" stop-color="#F77721" stop-opacity="0"/>
</radialGradient>
</defs>
</svg>
